<svg width="113" height="20" viewBox="0 0 113 20" fill="none" xmlns="http://www.w3.org/2000/svg">
<g clip-path="url(#clip0_143_4362)">
<path d="M17.0605 0.256237L11.1781 14.2892H7.34051L4.44573 3.08959C4.27023 2.40143 4.11772 2.14818 3.58366 1.85719C2.71069 1.38298 1.2691 0.939477 0.00195312 0.663584L0.087424 0.256237H6.26589C7.05216 0.256237 7.76014 0.779768 7.94021 1.68625L9.46973 9.80738L13.2459 0.256237H17.0605ZM22.2484 0.256237L19.2468 14.2892H15.6159L18.6179 0.256237H22.2484ZM32.097 9.70752C32.1121 6.00455 26.9769 5.79903 27.0104 4.14455C27.0227 3.64155 27.5018 3.10608 28.5506 2.96919C29.0701 2.90197 30.5054 2.84844 32.1311 3.5975L32.7671 0.619883C31.8936 0.303974 30.7695 0 29.3713 0C25.7822 0 23.2576 1.90633 23.2374 4.63824C23.2139 6.659 25.0407 7.78522 26.4145 8.45828C27.8296 9.14555 28.3042 9.5873 28.2977 10.2016C28.2875 11.1431 27.1675 11.56 26.1262 11.5754C24.3002 11.6044 23.2418 11.0819 22.3974 10.6886L21.7384 13.7648C22.5878 14.1541 24.1533 14.4923 25.7748 14.5095C29.5903 14.5095 32.0858 12.6249 32.097 9.70752ZM41.5743 14.2892H44.9312L41.9985 0.256237H38.9014C38.2029 0.256237 37.6158 0.661653 37.3553 1.28487L31.9077 14.2892H35.7202L36.4764 12.193H41.1343L41.5743 14.2892ZM37.5219 9.31737L39.4335 4.04749L40.5316 9.31737H37.5217H37.5219ZM26.8951 18.1519H25.4198V19.5249H27.0699V19.9377H24.9228V16.1289H26.9853V16.5417H25.4198V17.7451H26.8949V18.1523L26.8951 18.1519ZM27.8321 15.9255H28.3291V19.9375H27.8321V15.9255ZM29.5833 18.6604C29.5945 19.3331 30.0185 19.6099 30.5212 19.6099C30.8775 19.6099 31.0977 19.5477 31.2788 19.4687L31.369 19.8248C31.1939 19.9038 30.8889 19.9998 30.4534 19.9998C29.6117 19.9998 29.1089 19.4405 29.1089 18.6153C29.1089 17.7904 29.5945 17.1459 30.3915 17.1459C31.2901 17.1459 31.5217 17.9261 31.5217 18.4289C31.5217 18.5305 31.5159 18.6039 31.5045 18.6605L29.5833 18.6604ZM31.0412 18.3044C31.047 17.9938 30.9113 17.502 30.3518 17.502C29.8432 17.502 29.6284 17.9598 29.5887 18.3044H31.0412ZM34.2273 19.8415C34.0974 19.9038 33.8091 20 33.4419 20C32.6169 20 32.08 19.4405 32.08 18.604C32.08 17.762 32.6562 17.1461 33.5492 17.1461C33.843 17.1461 34.1029 17.2193 34.2385 17.293L34.1259 17.6716C34.0067 17.6094 33.8203 17.5414 33.5492 17.5414C32.9217 17.5414 32.583 18.0105 32.583 18.576C32.583 19.2086 32.9898 19.5986 33.5323 19.5986C33.8149 19.5986 34.0013 19.5309 34.1425 19.4687L34.2273 19.8415ZM35.6222 16.5469V17.2025H36.3341V17.5808H35.6222V19.056C35.6222 19.3954 35.7184 19.5872 35.9952 19.5872C36.1307 19.5872 36.21 19.5762 36.2835 19.5532L36.3062 19.9323C36.21 19.966 36.0575 19.9998 35.8653 19.9998C35.6335 19.9998 35.4469 19.9207 35.3284 19.791C35.1928 19.6381 35.1363 19.3954 35.1363 19.0732V17.5808H34.7122V17.2025H35.1363V16.694L35.6224 16.5471L35.6222 16.5469ZM37.0285 18.0559C37.0285 17.7337 37.0226 17.4569 37.0059 17.2025H37.4412L37.464 17.7448H37.4805C37.6051 17.3778 37.9099 17.1459 38.2432 17.1459C38.2943 17.1459 38.334 17.1517 38.3792 17.1572V17.6265C38.3283 17.6149 38.2776 17.6149 38.2093 17.6149C37.8594 17.6149 37.6103 17.8748 37.5428 18.2481C37.5311 18.3248 37.5254 18.4022 37.5258 18.4798V19.9379H37.0285V18.0559ZM41.4356 18.5473C41.4356 19.559 40.7291 19.9998 40.0737 19.9998C39.3389 19.9998 38.7627 19.4572 38.7627 18.5928C38.7627 17.6828 39.3673 17.1461 40.119 17.1461C40.9044 17.1461 41.4356 17.7163 41.4356 18.5473ZM39.2711 18.5758C39.2711 19.1748 39.6102 19.6271 40.0962 19.6271C40.5711 19.6271 40.9269 19.1802 40.9269 18.5644C40.9269 18.101 40.6952 17.5187 40.1074 17.5187C39.5256 17.5187 39.2711 18.0615 39.2711 18.5758ZM42.1977 17.9427C42.1977 17.6547 42.1917 17.4285 42.1749 17.2026H42.6157L42.644 17.6547H42.6552C42.7909 17.4002 43.1073 17.1461 43.5594 17.1461C43.9378 17.1461 44.5258 17.3722 44.5258 18.3099V19.9377H44.0286V18.361C44.0286 17.9204 43.8646 17.5528 43.3957 17.5528C43.0735 17.5528 42.819 17.7846 42.7289 18.0614C42.7061 18.1237 42.6949 18.2083 42.6949 18.2932V19.9377H42.1977V17.9427Z" fill="#1A1F71"/>
</g>
<g clip-path="url(#clip1_143_4362)">
<path d="M57.6804 19.9007V18.577C57.6804 18.0695 57.3714 17.7386 56.8419 17.7386C56.5771 17.7386 56.2903 17.8268 56.0917 18.1137C55.9374 17.871 55.7167 17.7386 55.3858 17.7386C55.1651 17.7386 54.9446 17.8047 54.768 18.0475V17.7827H54.3047V19.9007H54.768V18.7314C54.768 18.3564 54.9666 18.1798 55.2755 18.1798C55.5843 18.1798 55.7389 18.3784 55.7389 18.7314V19.9007H56.2022V18.7314C56.2022 18.3564 56.4227 18.1798 56.7095 18.1798C57.0185 18.1798 57.1728 18.3784 57.1728 18.7314V19.9007H57.6804ZM64.5418 17.7827H63.7917V17.1429H63.3284V17.7827H62.9092V18.2018H63.3283V19.1727C63.3283 19.6581 63.5269 19.9448 64.0564 19.9448C64.255 19.9448 64.4755 19.8787 64.6301 19.7905L64.4977 19.3933C64.3653 19.4815 64.2109 19.5036 64.1006 19.5036C63.88 19.5036 63.7917 19.3713 63.7917 19.1506V18.2018H64.5418V17.7827ZM68.469 17.7385C68.2043 17.7385 68.0278 17.871 67.9175 18.0475V17.7827H67.4541V19.9007H67.9175V18.7094C67.9175 18.3564 68.0718 18.1578 68.3587 18.1578C68.4469 18.1578 68.5573 18.1799 68.6455 18.2019L68.7779 17.7607C68.6896 17.7386 68.5573 17.7386 68.469 17.7386V17.7385ZM62.5341 17.9592C62.3134 17.8047 62.0046 17.7386 61.6736 17.7386C61.1442 17.7386 60.7912 18.0033 60.7912 18.4225C60.7912 18.7756 61.0559 18.9741 61.5193 19.0403L61.7399 19.0624C61.9826 19.1064 62.1149 19.1727 62.1149 19.283C62.1149 19.4374 61.9385 19.5478 61.6295 19.5478C61.3207 19.5478 61.078 19.4374 60.9235 19.3271L60.7029 19.6801C60.9456 19.8566 61.2765 19.9448 61.6074 19.9448C62.2252 19.9448 62.5783 19.6581 62.5783 19.2609C62.5783 18.8858 62.2914 18.6873 61.8501 18.6211L61.6295 18.599C61.4309 18.5769 61.2765 18.5329 61.2765 18.4005C61.2765 18.246 61.4309 18.1578 61.6736 18.1578C61.9385 18.1578 62.2032 18.2681 62.3355 18.3343L62.5341 17.9592ZM74.8452 17.7386C74.5804 17.7386 74.4039 17.871 74.2935 18.0475V17.7827H73.8302V19.9007H74.2935V18.7094C74.2935 18.3564 74.448 18.1578 74.7347 18.1578C74.8231 18.1578 74.9334 18.1799 75.0217 18.2019L75.154 17.7607C75.0658 17.7386 74.9334 17.7386 74.8452 17.7386ZM68.9323 18.8417C68.9323 19.4815 69.3735 19.9448 70.0576 19.9448C70.3664 19.9448 70.587 19.8787 70.8076 19.7022L70.587 19.3271C70.4105 19.4595 70.234 19.5256 70.0354 19.5256C69.6604 19.5256 69.3956 19.2609 69.3956 18.8417C69.3956 18.4446 69.6604 18.1798 70.0354 18.1578C70.234 18.1578 70.4105 18.2239 70.587 18.3564L70.8076 17.9813C70.587 17.8047 70.3664 17.7386 70.0576 17.7386C69.3735 17.7386 68.9323 18.2019 68.9323 18.8417ZM73.2125 18.8417V17.7827H72.7492V18.0475C72.5947 17.849 72.3741 17.7386 72.0873 17.7386C71.4916 17.7386 71.0283 18.2019 71.0283 18.8417C71.0283 19.4815 71.4916 19.9448 72.0873 19.9448C72.3961 19.9448 72.6169 19.8346 72.7492 19.636V19.9007H73.2125V18.8417ZM71.5136 18.8417C71.5136 18.4666 71.7563 18.1578 72.1534 18.1578C72.5285 18.1578 72.7933 18.4446 72.7933 18.8417C72.7933 19.2168 72.5285 19.5256 72.1534 19.5256C71.7563 19.5035 71.5136 19.2168 71.5136 18.8417ZM65.9759 17.7386C65.3582 17.7386 64.9168 18.1798 64.9168 18.8417C64.9168 19.5036 65.3581 19.9448 65.998 19.9448C66.3068 19.9448 66.6157 19.8566 66.8585 19.6581L66.6378 19.3271C66.4613 19.4595 66.2407 19.5478 66.0201 19.5478C65.7332 19.5478 65.4464 19.4154 65.3802 19.0402H66.9467V18.8638C66.9688 18.1798 66.5717 17.7386 65.9759 17.7386ZM65.9759 18.1357C66.2627 18.1357 66.4614 18.3123 66.5054 18.6432H65.4023C65.4464 18.3564 65.645 18.1357 65.9759 18.1357ZM77.4706 18.8417V16.9443H77.0073V18.0475C76.8528 17.849 76.6322 17.7386 76.3454 17.7386C75.7497 17.7386 75.2864 18.2019 75.2864 18.8417C75.2864 19.4815 75.7497 19.9448 76.3454 19.9448C76.6543 19.9448 76.8749 19.8346 77.0073 19.636V19.9007H77.4706V18.8417ZM75.7718 18.8417C75.7718 18.4666 76.0144 18.1578 76.4116 18.1578C76.7867 18.1578 77.0514 18.4446 77.0514 18.8417C77.0514 19.2168 76.7867 19.5256 76.4116 19.5256C76.0144 19.5035 75.7718 19.2168 75.7718 18.8417ZM60.2837 18.8417V17.7827H59.8204V18.0475C59.6659 17.849 59.4453 17.7386 59.1585 17.7386C58.5628 17.7386 58.0995 18.2019 58.0995 18.8417C58.0995 19.4815 58.5628 19.9448 59.1585 19.9448C59.4674 19.9448 59.688 19.8346 59.8204 19.636V19.9007H60.2837V18.8417ZM58.5628 18.8417C58.5628 18.4666 58.8055 18.1578 59.2026 18.1578C59.5777 18.1578 59.8425 18.4446 59.8425 18.8417C59.8425 19.2168 59.5777 19.5256 59.2026 19.5256C58.8055 19.5035 58.5628 19.2168 58.5628 18.8417Z" fill="#613C11"/>
<path d="M62.3789 1.69873H69.3287V14.1863H62.3789V1.69873Z" fill="#FF5F00"/>
<path d="M62.8199 7.94261C62.8199 5.40543 64.0113 3.15497 65.8425 1.69879C64.4967 0.639799 62.7979 0 60.9447 0C56.554 0 53.002 3.55206 53.002 7.94261C53.002 12.3331 56.554 15.8852 60.9446 15.8852C62.7978 15.8852 64.4966 15.2454 65.8425 14.1863C64.0113 12.7523 62.8199 10.4798 62.8199 7.94261Z" fill="#EB001B"/>
<path d="M78.7057 7.94261C78.7057 12.3331 75.1537 15.8852 70.7631 15.8852C68.9099 15.8852 67.2111 15.2454 65.8652 14.1863C67.7185 12.7303 68.8878 10.4798 68.8878 7.94261C68.8878 5.40543 67.6964 3.15497 65.8652 1.69879C67.211 0.639799 68.9099 0 70.7631 0C75.1537 0 78.7057 3.57417 78.7057 7.94261Z" fill="#F79E1B"/>
</g>
<g clip-path="url(#clip2_143_4362)">
<path d="M112.595 15.9008C112.595 18.1136 110.793 19.9156 108.58 19.9156H86.7363V4.01475C86.7363 1.80192 88.5382 0 90.7511 0H112.595V15.9008Z" fill="white"/>
<path d="M105.482 11.8228H107.142C107.189 11.8228 107.3 11.807 107.348 11.807C107.664 11.7438 107.932 11.4593 107.932 11.0641C107.932 10.6848 107.664 10.4003 107.348 10.3213C107.3 10.3054 107.205 10.3054 107.142 10.3054H105.483V11.8228H105.482Z" fill="url(#paint0_linear_143_4362)"/>
<path d="M106.953 1.34351C105.372 1.34351 104.076 2.62391 104.076 4.22027V7.20765H108.139C108.233 7.20765 108.344 7.20765 108.423 7.22341C109.34 7.27088 110.019 7.74502 110.019 8.56684C110.019 9.21492 109.561 9.76815 108.708 9.87886V9.91037C109.64 9.97361 110.351 10.4952 110.351 11.3013C110.351 12.1707 109.561 12.7397 108.518 12.7397H104.061V18.588H108.281C109.861 18.588 111.158 17.3076 111.158 15.7112V1.34351H106.953Z" fill="url(#paint1_linear_143_4362)"/>
<path d="M107.727 8.75659C107.727 8.3772 107.458 8.12427 107.142 8.07679C107.111 8.07679 107.031 8.06104 106.984 8.06104H105.482V9.45194H106.984C107.032 9.45194 107.126 9.45194 107.142 9.43619C107.458 9.38871 107.727 9.13588 107.727 8.75649L107.727 8.75659Z" fill="url(#paint2_linear_143_4362)"/>
<path d="M91.0507 1.34351C89.4701 1.34351 88.174 2.62391 88.174 4.22027V11.3172C88.9801 11.7123 89.8178 11.9652 90.6556 11.9652C91.6513 11.9652 92.1887 11.3646 92.1887 10.5427V7.19179H94.6545V10.5268C94.6545 11.8229 93.8484 12.882 91.114 12.882C89.4544 12.882 88.1582 12.5184 88.1582 12.5184V18.5721H92.3784C93.959 18.5721 95.2552 17.2918 95.2552 15.6953V1.34371H91.0506L91.0507 1.34351Z" fill="url(#paint3_linear_143_4362)"/>
<path d="M99.0018 1.34351C97.4212 1.34351 96.125 2.62391 96.125 4.22027V7.98209C96.8522 7.36563 98.1166 6.97048 100.156 7.06532C101.246 7.1128 102.416 7.4131 102.416 7.4131V8.63017C101.831 8.32987 101.136 8.06108 100.235 7.99785C98.6856 7.88724 97.7531 8.64593 97.7531 9.97361C97.7531 11.3171 98.6856 12.0758 100.235 11.9494C101.136 11.8861 101.831 11.6017 102.416 11.3171V12.5342C102.416 12.5342 101.262 12.8345 100.156 12.882C98.1166 12.9767 96.8522 12.5816 96.1251 11.9652V18.6037H100.345C101.926 18.6037 103.222 17.3234 103.222 15.7269V1.34371H99.0018V1.34351Z" fill="url(#paint4_linear_143_4362)"/>
</g>
<defs>
<linearGradient id="paint0_linear_143_4362" x1="-35.4588" y1="86.3622" x2="674.84" y2="86.3622" gradientUnits="userSpaceOnUse">
<stop stop-color="#007940"/>
<stop offset="0.2285" stop-color="#00873F"/>
<stop offset="0.7433" stop-color="#40A737"/>
<stop offset="1" stop-color="#5CB531"/>
</linearGradient>
<linearGradient id="paint1_linear_143_4362" x1="105.359" y1="862.876" x2="815.695" y2="862.876" gradientUnits="userSpaceOnUse">
<stop stop-color="#007940"/>
<stop offset="0.2285" stop-color="#00873F"/>
<stop offset="0.7433" stop-color="#40A737"/>
<stop offset="1" stop-color="#5CB531"/>
</linearGradient>
<linearGradient id="paint2_linear_143_4362" x1="-35.4795" y1="77.409" x2="674.858" y2="77.409" gradientUnits="userSpaceOnUse">
<stop stop-color="#007940"/>
<stop offset="0.2285" stop-color="#00873F"/>
<stop offset="0.7433" stop-color="#40A737"/>
<stop offset="1" stop-color="#5CB531"/>
</linearGradient>
<linearGradient id="paint3_linear_143_4362" x1="89.4073" y1="862.876" x2="810.687" y2="862.876" gradientUnits="userSpaceOnUse">
<stop stop-color="#1F286F"/>
<stop offset="0.4751" stop-color="#004E94"/>
<stop offset="0.8261" stop-color="#0066B1"/>
<stop offset="1" stop-color="#006FBC"/>
</linearGradient>
<linearGradient id="paint4_linear_143_4362" x1="92.0371" y1="862.869" x2="792.572" y2="862.869" gradientUnits="userSpaceOnUse">
<stop stop-color="#6C2C2F"/>
<stop offset="0.1735" stop-color="#882730"/>
<stop offset="0.5731" stop-color="#BE1833"/>
<stop offset="0.8585" stop-color="#DC0436"/>
<stop offset="1" stop-color="#E60039"/>
</linearGradient>
<clipPath id="clip0_143_4362">
<rect width="45" height="20" fill="white"/>
</clipPath>
<clipPath id="clip1_143_4362">
<rect width="25.7333" height="20" fill="white" transform="translate(53)"/>
</clipPath>
<clipPath id="clip2_143_4362">
<rect width="25.8667" height="20" fill="white" transform="translate(86.7324)"/>
</clipPath>
</defs>
</svg>
